<svg width="26" height="26" viewBox="0 0 26 26" fill="none" xmlns="http://www.w3.org/2000/svg">
<g clip-path="url(#clip0_644_926)">
<path d="M19.1864 5.88909V1.69348H6.59961V5.88909H19.1864Z" stroke="white" stroke-width="1.2149" stroke-miterlimit="10" stroke-linecap="square"/>
<path d="M9.74616 9.03577V14.2803L4.76283 20.5087C4.45425 20.8943 4.26084 21.3592 4.20488 21.8499C4.14892 22.3406 4.23267 22.8372 4.4465 23.2824C4.66033 23.7276 4.99555 24.1033 5.41355 24.3664C5.83155 24.6294 6.31535 24.7691 6.80924 24.7693H18.9765C19.4706 24.7695 19.9546 24.6301 20.373 24.3672C20.7913 24.1043 21.1268 23.7286 21.3409 23.2833C21.555 22.838 21.6389 22.3413 21.583 21.8504C21.5271 21.3595 21.3337 20.8944 21.025 20.5087L16.0396 14.2803V9.03577" stroke="white" stroke-width="1.2149" stroke-miterlimit="10" stroke-linecap="square"/>
</g>
<defs>
<clipPath id="clip0_644_926">
<rect width="25.1737" height="25.1737" fill="white" transform="translate(0.306152 0.644592)"/>
</clipPath>
</defs>
</svg>
