<svg width="26" height="26" viewBox="0 0 26 26" fill="none" xmlns="http://www.w3.org/2000/svg">
<g clip-path="url(#clip0_644_895)">
<path d="M24.3612 14.8076V11.0317L20.8622 10.6436C20.6847 10.0175 20.4348 9.41412 20.1175 8.84587L22.318 6.09574L19.6476 3.42533L16.8975 5.62585C16.3292 5.30855 15.7259 5.05863 15.0997 4.88116L14.7116 1.38214H10.9357L10.5476 4.88116C9.92144 5.05863 9.31811 5.30855 8.74986 5.62585L5.99974 3.42533L3.32932 6.09574L5.52984 8.84587C5.21254 9.41412 4.96262 10.0175 4.78515 10.6436L1.28613 11.0317V14.8076L4.78515 15.1957C4.96262 15.8219 5.21254 16.4252 5.52984 16.9935L3.32932 19.7436L5.99974 22.4119L8.74986 20.2135C9.31811 20.5308 9.92144 20.7807 10.5476 20.9582L10.9357 24.4572H14.7116L15.0997 20.9582C15.7259 20.7807 16.3292 20.5308 16.8975 20.2135L19.6476 22.4119L22.318 19.7436L20.1175 16.9935C20.4348 16.4252 20.6847 15.8219 20.8622 15.1957L24.3612 14.8076Z" stroke="white" stroke-width="0.607451" stroke-linecap="round" stroke-linejoin="round"/>
<path d="M12.8234 16.0663C14.5612 16.0663 15.97 14.6575 15.97 12.9197C15.97 11.1819 14.5612 9.77307 12.8234 9.77307C11.0855 9.77307 9.67676 11.1819 9.67676 12.9197C9.67676 14.6575 11.0855 16.0663 12.8234 16.0663Z" stroke="white" stroke-width="0.607451" stroke-linecap="round" stroke-linejoin="round"/>
</g>
<defs>
<clipPath id="clip0_644_895">
<rect width="25.1728" height="25.1728" fill="white" transform="translate(0.237305 0.333313)"/>
</clipPath>
</defs>
</svg>
