<svg width="202" height="185" viewBox="0 0 202 185" fill="none" xmlns="http://www.w3.org/2000/svg">
<rect x="109.043" width="130.166" height="130.166" rx="10" transform="rotate(45 109.043 0)" fill="#28CAAD"/>
<rect x="92.041" y="1.41421" width="128.166" height="128.166" rx="9" transform="rotate(45 92.041 1.41421)" stroke="#6F6F6F" stroke-width="2" stroke-dasharray="50 8 15 6"/>
<path d="M125.449 82.1562H92.6362C92.3461 82.1562 92.0679 82.2715 91.8628 82.4766C91.6577 82.6817 91.5425 82.9599 91.5425 83.25V104.031H126.542V83.25C126.542 82.9599 126.427 82.6817 126.222 82.4766C126.017 82.2715 125.739 82.1562 125.449 82.1562ZM124.355 100.75C124.355 101.04 124.24 101.318 124.035 101.523C123.83 101.729 123.551 101.844 123.261 101.844H94.8237C94.5336 101.844 94.2554 101.729 94.0503 101.523C93.8452 101.318 93.73 101.04 93.73 100.75V85.4375C93.73 85.1474 93.8452 84.8692 94.0503 84.6641C94.2554 84.459 94.5336 84.3438 94.8237 84.3438H123.261C123.551 84.3438 123.83 84.459 124.035 84.6641C124.24 84.8692 124.355 85.1474 124.355 85.4375V100.75Z" fill="white"/>
<path d="M87.8433 106.219L88.937 108.406H129.148L130.241 106.219H87.8433Z" fill="white"/>
<path d="M95.9175 99.6562H122.167V86.5312H95.9175V99.6562ZM114.832 90.5858L116.378 89.0392L119.66 92.3205C119.865 92.5256 119.98 92.8037 119.98 93.0938C119.98 93.3838 119.865 93.6619 119.66 93.867L116.378 97.1483L114.832 95.6017L117.34 93.0938L114.832 90.5858ZM106.97 89.3236L108.928 90.3014L105.646 96.8639L103.689 95.8861L106.97 89.3236ZM98.4254 92.3205L101.707 89.0392L103.253 90.5858L100.745 93.0938L103.253 95.6017L101.707 97.1483L98.4254 93.867C98.2204 93.6619 98.1052 93.3838 98.1052 93.0938C98.1052 92.8037 98.2204 92.5256 98.4254 92.3205Z" fill="white"/>
<path d="M83.8862 90.9063H89.355V83.25C89.355 82.3798 89.7007 81.5452 90.316 80.9298C90.9314 80.3145 91.766 79.9688 92.6362 79.9688H125.449C126.319 79.9688 127.154 80.3145 127.769 80.9298C128.384 81.5452 128.73 82.3798 128.73 83.25V90.9063C131.631 90.9063 134.413 89.754 136.464 87.7028C138.515 85.6516 139.667 82.8696 139.667 79.9688C139.667 77.068 138.515 74.286 136.464 72.2348C134.413 70.1836 131.631 69.0313 128.73 69.0313H128.063C127.837 69.0313 127.616 68.9612 127.431 68.8305C127.246 68.6998 127.107 68.5151 127.031 68.3018C126.344 66.3517 125.09 64.6514 123.43 63.419C121.77 62.1866 119.78 61.4783 117.714 61.385C115.649 61.2916 113.602 61.8176 111.838 62.8952C110.073 63.9729 108.671 65.5532 107.811 67.4333C107.737 67.5938 107.625 67.7341 107.485 67.8419C107.345 67.9498 107.181 68.0222 107.007 68.0528C106.833 68.0835 106.654 68.0715 106.486 68.0179C106.317 67.9643 106.164 67.8707 106.04 67.745C104.592 66.2805 102.741 65.2794 100.723 64.8689C98.7044 64.4584 96.6096 64.657 94.7043 65.4395C92.7991 66.222 91.1694 67.5531 90.0222 69.2637C88.875 70.9743 88.2621 72.9872 88.2612 75.0469V78.875C88.2612 79.1651 88.146 79.4433 87.9409 79.6484C87.7358 79.8536 87.4576 79.9688 87.1675 79.9688H83.8862C82.4358 79.9688 81.0448 80.545 80.0192 81.5706C78.9937 82.5961 78.4175 83.9871 78.4175 85.4375C78.4175 86.8879 78.9937 88.2789 80.0192 89.3045C81.0448 90.3301 82.4358 90.9063 83.8862 90.9063ZM135.292 83.25H133.105V81.0625H135.292V83.25ZM128.73 72.3125C130.47 72.3143 132.138 73.0062 133.368 74.2366C134.599 75.4669 135.291 77.1351 135.292 78.875H133.105C133.105 77.7147 132.644 76.6019 131.824 75.7815C131.003 74.961 129.89 74.5 128.73 74.5V72.3125Z" fill="white"/>
<path d="M141.855 119.344H113.262C113.066 118.592 112.672 117.906 112.123 117.357C111.574 116.808 110.888 116.414 110.136 116.218V109.5H107.949V116.218C107.197 116.414 106.511 116.808 105.962 117.357C105.413 117.906 105.019 118.592 104.823 119.344H76.23V121.531H104.823C105.062 122.469 105.606 123.301 106.37 123.895C107.134 124.489 108.075 124.811 109.042 124.811C110.01 124.811 110.951 124.489 111.715 123.895C112.479 123.301 113.023 122.469 113.262 121.531H141.855V119.344ZM109.042 122.625C108.61 122.625 108.187 122.497 107.827 122.256C107.467 122.016 107.187 121.674 107.021 121.275C106.856 120.875 106.813 120.435 106.897 120.011C106.981 119.586 107.19 119.197 107.496 118.891C107.802 118.585 108.191 118.376 108.616 118.292C109.04 118.208 109.48 118.251 109.88 118.417C110.279 118.582 110.621 118.862 110.861 119.222C111.102 119.582 111.23 120.005 111.23 120.438C111.23 121.018 111 121.574 110.589 121.984C110.179 122.395 109.623 122.625 109.042 122.625Z" fill="white"/>
</svg>
