<svg width="27" height="27" viewBox="0 0 27 27" fill="none" xmlns="http://www.w3.org/2000/svg">
<path d="M25.1828 15.0031C24.8044 17.8369 23.41 20.4369 21.2588 22.3199C19.1075 24.2029 16.3458 25.2409 13.4869 25.2409C10.628 25.2409 7.86629 24.2029 5.71507 22.3199C3.56386 20.4369 2.16946 17.8369 1.79102 15.0031" stroke="white" stroke-width="0.607451" stroke-linecap="round" stroke-linejoin="round"/>
<path d="M7.56738 3.21593C9.36749 2.177 11.4093 1.63007 13.4877 1.63007C15.5661 1.63007 17.6079 2.177 19.408 3.21593" stroke="white" stroke-width="0.607451" stroke-linecap="round" stroke-linejoin="round"/>
<path d="M9.63238 17.3629C9.58059 17.6219 9.55424 17.8854 9.55371 18.1496C9.55371 19.1927 9.96811 20.1932 10.7057 20.9308C11.4434 21.6684 12.4438 22.0828 13.487 22.0828C14.5301 22.0828 15.5306 21.6684 16.2682 20.9308C17.0058 20.1932 17.4202 19.1927 17.4202 18.1496C17.4197 17.8854 17.3933 17.6219 17.3415 17.3629H9.63238Z" stroke="white" stroke-width="0.607451" stroke-linecap="round" stroke-linejoin="round"/>
<path d="M7.19405 14.2164C10.2352 14.2164 12.7006 11.751 12.7006 8.70985C12.7006 5.66867 10.2352 3.20331 7.19405 3.20331C4.15286 3.20331 1.6875 5.66867 1.6875 8.70985C1.6875 11.751 4.15286 14.2164 7.19405 14.2164Z" stroke="white" stroke-width="0.607451" stroke-linecap="round" stroke-linejoin="round"/>
<path d="M19.78 14.2164C22.8212 14.2164 25.2865 11.751 25.2865 8.70985C25.2865 5.66867 22.8212 3.20331 19.78 3.20331C16.7388 3.20331 14.2734 5.66867 14.2734 8.70985C14.2734 11.751 16.7388 14.2164 19.78 14.2164Z" stroke="white" stroke-width="0.607451" stroke-linecap="round" stroke-linejoin="round"/>
<path d="M7.19439 10.2832C8.0633 10.2832 8.76769 9.5788 8.76769 8.7099C8.76769 7.84099 8.0633 7.1366 7.19439 7.1366C6.32548 7.1366 5.62109 7.84099 5.62109 8.7099C5.62109 9.5788 6.32548 10.2832 7.19439 10.2832Z" fill="white"/>
<path d="M19.7803 10.2832C20.6492 10.2832 21.3536 9.5788 21.3536 8.7099C21.3536 7.84099 20.6492 7.1366 19.7803 7.1366C18.9114 7.1366 18.207 7.84099 18.207 8.7099C18.207 9.5788 18.9114 10.2832 19.7803 10.2832Z" fill="white"/>
</svg>
