<?xml version="1.0"?>
<svg xmlns="http://www.w3.org/2000/svg" width="119" height="34" viewBox="0 0 119 34" fill="none">
<g clip-path="url(#clip0_65_2401)">
<path d="M75.7011 15.0548L75.7061 15.0512C75.9289 14.8964 76.1142 14.6935 76.2482 14.4574C76.3821 14.2214 76.4614 13.9583 76.4801 13.6875C76.4961 13.4129 76.446 13.1385 76.3339 12.8874C76.2217 12.6363 76.051 12.4158 75.8359 12.2444C75.4062 11.9112 74.7926 11.7445 73.9952 11.7445C73.5661 11.7437 73.1389 11.8007 72.7251 11.9142C72.3857 11.9955 72.0632 12.1361 71.7726 12.3294V15.3534H74.7595C75.0972 15.3568 75.4271 15.2522 75.7011 15.0548Z" fill="#00ABD6"/>
<path d="M116.928 0.0825195L60.4403 2.22587L60.4915 12.1331L51.2564 16.8243L60.5307 19.5769L60.5751 28.1616L118.938 33.0825L116.928 0.0825195ZM78.8617 21.9973C78.0336 22.5819 76.8163 22.8743 75.21 22.8746C74.0646 22.8746 72.8599 22.8369 71.5961 22.7613C70.3323 22.6858 69.3766 22.5978 68.7289 22.4972V10.1788C69.2419 9.84749 69.807 9.60515 70.4006 9.46196C71.083 9.26309 71.779 9.11494 72.4832 9.01871C72.9784 8.94773 73.4774 8.90675 73.9775 8.89597C74.9161 8.87484 75.8529 8.98608 76.7605 9.22641C77.4139 9.39974 78.0265 9.70107 78.5627 10.1129C78.9961 10.4549 79.3286 10.908 79.5248 11.424C79.7089 11.9125 79.8037 12.4301 79.8049 12.9521C79.8154 13.6258 79.6548 14.2911 79.3382 14.8858C79.0253 15.4596 78.5842 15.9534 78.0492 16.3287C78.4953 16.5076 78.8993 16.7775 79.2353 17.1212C79.548 17.4326 79.7818 17.8142 79.917 18.2343C80.0366 18.6064 80.0996 18.9942 80.1037 19.385C80.1037 20.5418 79.6897 21.4126 78.8617 21.9973ZM94.6804 18.3745C94.4334 19.2341 94.0175 20.0358 93.457 20.7327C92.8991 21.4133 92.1888 21.9529 91.3837 22.3079C90.4826 22.699 89.5082 22.8921 88.5261 22.8744C87.7719 22.8694 87.0227 22.7518 86.3033 22.5253C85.5262 22.2824 84.8142 21.8664 84.221 21.3086C83.609 20.7539 83.122 20.0754 82.7921 19.3182C82.4894 18.6413 82.2759 17.928 82.157 17.1961C82.0634 16.6032 82.0135 16.0042 82.0077 15.4039C81.9947 14.4776 82.14 13.5558 82.4371 12.6783C82.6976 11.9091 83.1246 11.207 83.6879 10.622C84.2683 10.0417 84.9745 9.60277 85.7518 9.33923C86.6502 9.03218 87.5947 8.88216 88.544 8.89574C89.4911 8.88147 90.4333 9.03489 91.327 9.34891C92.1062 9.61598 92.8124 10.0611 93.3895 10.6489C93.9666 11.2366 94.3988 11.9509 94.6516 12.7349C94.9477 13.6193 95.0929 14.5472 95.0811 15.4797C95.0886 16.459 94.9537 17.4341 94.6804 18.3745ZM105.689 22.8739L102.664 17.8938L100.086 22.8739L96.3132 22.2324L100.478 15.7053L96.4066 9.57526L100.422 8.89597L102.813 13.8386L105.392 8.89597L109.314 9.51861L105.036 15.706L109.574 22.1578L105.689 22.8739Z" fill="#00ABD6"/>
<path d="M74.6125 17.7052H71.7736V20.158C71.9477 20.183 72.3773 20.2145 73.0623 20.2524C73.7473 20.2903 74.3574 20.3092 74.8926 20.309C76.225 20.309 76.891 19.7272 76.891 19.0345C76.891 18.1593 76.1316 17.7052 74.6125 17.7052Z" fill="#00ABD6"/>
<path d="M88.5447 11.7823C87.4988 11.7823 86.7051 12.103 86.1634 12.7444C85.6217 13.3858 85.3509 14.2975 85.3509 15.4797C85.3269 16.3222 85.4534 17.1623 85.7245 17.9603C85.9279 18.5573 86.3011 19.0818 86.7984 19.4695C87.3081 19.8289 87.9215 20.0113 88.5447 19.9887C89.1559 20.0077 89.7564 19.8252 90.2538 19.4695C90.7559 19.0764 91.1377 18.5502 91.3558 17.9509C91.6446 17.1599 91.7807 16.3214 91.757 15.4797C91.757 14.2974 91.4831 13.3856 90.9353 12.7444C90.3875 12.1032 89.5906 11.7825 88.5447 11.7823Z" fill="#00ABD6"/>
<path d="M11.3666 19.9335C11.1096 15.5635 5.58345 15.0213 5.56741 15.0208L5.44399 15.0166C5.44399 15.0166 10.4903 14.1464 10.6482 10.1073C10.7058 8.63233 10.2942 7.41656 9.42533 6.49606C8.32515 5.32796 6.49673 4.68432 4.13709 4.63475C4.07786 4.63334 4.01626 4.63263 3.95302 4.63216C2.86347 4.6239 1.1089 4.73223 0 4.84458C0.210265 10.5857 0.304895 18.5001 0.247786 25.5299H3.20235C3.31279 25.5299 3.42158 25.525 3.53013 25.5259C6.0762 25.545 7.93082 25.1532 9.19972 24.2943C10.6036 23.3441 11.5074 22.0693 11.3666 19.9335Z" fill="#1D4D7A"/>
<path d="M45.8023 16.9645L45.8658 16.9126C45.8971 16.8869 51.5035 12.7423 55.4551 9.70295L53.6068 6.5402L44.0687 9.6194L44.0423 4.59204H39.6529C39.6529 4.59204 40.0152 16.5878 39.6529 25.5276H44.5917C44.3851 24.3141 44.2427 23.0906 44.1652 21.8621L44.1612 21.6853L52.9477 25.4737L55.0107 22.847C51.5243 20.6111 46.1088 17.26 45.8606 17.0207L45.8023 16.9645Z" fill="#1D4D7A"/>
<path d="M15.0767 4.6123C14.2444 11.2069 12.5795 19.6118 11.3198 25.5044H15.5204L16.8223 19.0019L18.9226 18.5855L18.9373 18.6577C18.9467 18.705 19.8321 23.1002 20.6302 25.993L24.9382 25.9413C23.4548 20.6255 22.1037 11.3978 21.1761 4.6123H15.0767Z" fill="#1D4D7A"/>
<path d="M34.1877 16.0478L34.2375 16.0124C34.3292 15.9472 34.4167 15.8762 34.4994 15.7999C35.2933 15.2185 35.9404 14.4595 36.3891 13.5836C36.8378 12.7077 37.0757 11.739 37.0837 10.7549C37.0837 5.65105 32.8614 4.59129 29.5387 4.59129C28.2268 4.5844 26.9156 4.6528 25.6115 4.79616C25.8642 12.3794 25.9869 18.9646 25.9878 25.5049H29.9524C29.951 23.332 29.8967 21.6133 29.8441 19.9752C29.8139 19.0401 29.7997 18.5494 29.7802 17.6273L30.09 17.6204C30.587 18.6171 33.4092 23.6554 35.7365 25.9757L39.0082 23.9287C36.7826 21.272 34.8765 17.5324 34.2137 16.1039L34.1877 16.0478Z" fill="#1D4D7A"/>
</g>
<defs>
<clipPath id="clip0_65_2401">
<rect width="118.938" height="33" fill="white" transform="translate(0 0.0825195)"/>
</clipPath>
</defs>
</svg>
